<svg width="750" height="750" viewBox="0 0 750 750" fill="none" xmlns="http://www.w3.org/2000/svg">
<path d="M174.168 421.999C166.166 429.998 161.669 440.849 161.667 452.164V498.5C161.667 504.158 163.914 509.584 167.915 513.585C171.916 517.586 177.342 519.833 183 519.833H247C252.658 519.833 258.084 517.586 262.085 513.585C266.086 509.584 268.333 504.158 268.333 498.5V477.167C268.333 471.509 270.581 466.082 274.582 462.082C278.582 458.081 284.009 455.833 289.667 455.833H311C316.658 455.833 322.084 453.586 326.085 449.585C330.086 445.584 332.333 440.158 332.333 434.5V413.167C332.333 407.509 334.581 402.082 338.582 398.082C342.582 394.081 348.009 391.833 353.667 391.833H357.336C368.651 391.831 379.502 387.334 387.501 379.332L404.867 361.967C434.516 372.295 466.794 372.256 496.418 361.855C526.043 351.454 551.261 331.307 567.946 304.711C584.632 278.114 591.798 246.642 588.272 215.444C584.745 184.245 570.736 155.167 548.534 132.965C526.333 110.764 497.255 96.7546 466.056 93.2283C434.858 89.702 403.386 96.8679 376.789 113.554C350.193 130.239 330.046 155.457 319.645 185.082C309.244 214.706 309.205 246.983 319.533 276.633L174.168 421.999Z" stroke="#6D0E55" stroke-width="42.6" stroke-linecap="round" stroke-linejoin="round"/>
<path d="M471 221.167C476.891 221.167 481.667 216.391 481.667 210.5C481.667 204.609 476.891 199.833 471 199.833C465.109 199.833 460.333 204.609 460.333 210.5C460.333 216.391 465.109 221.167 471 221.167Z" fill="#6D0E55" stroke="#6D0E55" stroke-width="42.6" stroke-linecap="round" stroke-linejoin="round"/>
<path d="M41.4536 610.572V604.908H90.9896L91.6616 621.228H82.6376L80.8136 610.572H67.3736C67.3096 614.092 67.2456 617.644 67.1816 621.228C67.1816 624.812 67.1816 628.396 67.1816 631.98H76.0136L77.1656 625.068H83.2136V644.94H77.1656L76.1096 638.124H67.1816C67.1816 642.348 67.1816 646.412 67.1816 650.316C67.2456 654.22 67.3096 658.092 67.3736 661.932H82.7336L84.5576 651.18H93.5816L92.9096 667.5H41.4536V661.836L48.0776 661.164C48.1416 657.324 48.1736 653.452 48.1736 649.548C48.1736 645.58 48.1736 641.644 48.1736 637.74V634.668C48.1736 630.764 48.1736 626.86 48.1736 622.956C48.1736 619.052 48.1416 615.148 48.0776 611.244L41.4536 610.572ZM136.572 610.572V604.908H162.78V610.572L154.62 611.82V667.5H144.54L112.668 622.86V660.588L123.996 661.836V667.5H97.7884V661.836L105.948 660.684V613.452L104.316 611.148L97.7884 610.668V604.908H122.268L147.9 640.044V611.82L136.572 610.572ZM207.767 610.092V604.908H228.023V610.572L221.399 611.724L201.815 667.5H190.295L170.423 611.052L165.527 610.572V604.908H198.455V610.092L190.679 611.148L202.583 648.012L214.967 611.436L207.767 610.092ZM246.913 667.5V661.836L256.417 660.684V611.532L248.065 610.572V604.908H276.481L289.729 642.732L302.209 604.908H328.609V610.572L322.465 611.244C322.401 615.148 322.369 619.052 322.369 622.956C322.369 626.86 322.369 630.764 322.369 634.668V637.74C322.369 641.644 322.369 645.58 322.369 649.548C322.369 653.452 322.401 657.324 322.465 661.164L329.089 661.836V667.5H296.641V661.836L303.169 661.068C303.297 657.228 303.329 653.548 303.265 650.028C303.265 646.444 303.297 643.276 303.361 640.524L303.649 620.94L288.001 667.5H279.553L262.753 620.556L263.137 639.948V660.588L271.105 661.836V667.5H246.913ZM358.713 621.42L351.417 644.172H365.817L358.713 621.42ZM332.601 667.5V661.836L340.185 660.78L359.385 604.908H370.905L390.297 661.548L395.481 662.124V667.5H364.473V662.124L371.097 661.164L367.641 650.22H349.497L346.137 660.684L352.761 661.836V667.5H332.601ZM437.979 610.572V604.908H464.187V610.572L456.027 611.82V667.5H445.947L414.075 622.86V660.588L425.403 661.836V667.5H399.195V661.836L407.355 660.684V613.452L405.723 611.148L399.195 610.668V604.908H423.675L449.307 640.044V611.82L437.979 610.572ZM487.806 621.42L480.51 644.172H494.91L487.806 621.42ZM461.694 667.5V661.836L469.278 660.78L488.478 604.908H499.998L519.39 661.548L524.574 662.124V667.5H493.566V662.124L500.19 661.164L496.734 650.22H478.59L475.23 660.684L481.854 661.836V667.5H461.694ZM560.397 669.42C553.741 669.42 547.885 668.14 542.829 665.58C537.773 663.02 533.837 659.244 531.021 654.252C528.205 649.26 526.797 643.18 526.797 636.012C526.797 625.708 529.805 617.644 535.821 611.82C541.837 605.932 550.509 602.988 561.837 602.988C564.653 602.988 567.693 603.34 570.957 604.044C574.285 604.748 577.357 605.836 580.173 607.308L580.557 622.668H572.493L569.325 609.612C567.597 608.972 565.869 608.652 564.141 608.652C561.069 608.652 558.189 609.58 555.501 611.436C552.813 613.292 550.637 616.236 548.973 620.268C547.309 624.3 546.477 629.548 546.477 636.012C546.477 642.476 547.277 647.756 548.877 651.852C550.541 655.948 552.685 658.956 555.309 660.876C557.933 662.796 560.717 663.756 563.661 663.756C563.789 663.756 563.917 663.756 564.045 663.756C564.237 663.756 564.397 663.756 564.525 663.756V659.436C564.525 656.62 564.493 653.9 564.429 651.276C564.429 648.588 564.397 645.868 564.333 643.116L556.269 641.868V636.204H587.181V641.868L582.573 642.54C582.509 645.42 582.445 648.3 582.381 651.18C582.381 653.996 582.381 656.908 582.381 659.916V663.852C579.053 665.836 575.629 667.244 572.109 668.076C568.653 668.972 564.749 669.42 560.397 669.42ZM590.36 610.572V604.908H639.896L640.568 621.228H631.544L629.72 610.572H616.28C616.216 614.092 616.152 617.644 616.088 621.228C616.088 624.812 616.088 628.396 616.088 631.98H624.92L626.072 625.068H632.12V644.94H626.072L625.016 638.124H616.088C616.088 642.348 616.088 646.412 616.088 650.316C616.152 654.22 616.216 658.092 616.28 661.932H631.64L633.464 651.18H642.488L641.816 667.5H590.36V661.836L596.984 661.164C597.048 657.324 597.08 653.452 597.08 649.548C597.08 645.58 597.08 641.644 597.08 637.74V634.668C597.08 630.764 597.08 626.86 597.08 622.956C597.08 619.052 597.048 615.148 596.984 611.244L590.36 610.572ZM674.727 610.86H672.615C672.551 614.764 672.487 618.636 672.423 622.476C672.423 626.316 672.423 629.836 672.423 633.036H674.535C677.607 633.036 679.943 632.492 681.543 631.404C683.207 630.316 684.327 628.94 684.903 627.276C685.543 625.548 685.863 623.756 685.863 621.9C685.863 618.124 684.871 615.34 682.887 613.548C680.967 611.756 678.247 610.86 674.727 610.86ZM647.079 610.572V604.908H680.103C687.719 604.908 693.543 606.284 697.575 609.036C701.607 611.788 703.623 615.596 703.623 620.46C703.623 622.508 703.111 624.524 702.087 626.508C701.063 628.492 699.303 630.284 696.807 631.884C694.311 633.42 690.791 634.54 686.247 635.244C690.535 635.756 693.831 636.716 696.135 638.124C698.439 639.532 700.071 641.388 701.031 643.692C702.055 645.932 702.759 648.652 703.143 651.852L704.295 661.068L711.207 661.836V667.5C709.351 667.884 707.847 668.172 706.695 668.364C705.543 668.62 704.423 668.78 703.335 668.844C702.311 668.972 700.967 669.036 699.303 669.036C694.823 669.036 691.207 668.236 688.455 666.636C685.767 664.972 684.199 661.996 683.751 657.708L682.791 648.3C682.535 645.292 681.831 642.956 680.679 641.292C679.591 639.628 677.831 638.796 675.399 638.796H672.423C672.423 642.7 672.423 646.508 672.423 650.22C672.423 653.868 672.455 657.516 672.519 661.164L679.527 661.836V667.5H647.079V661.836L653.703 661.164C653.767 657.324 653.799 653.452 653.799 649.548C653.799 645.58 653.799 641.644 653.799 637.74V634.668C653.799 630.764 653.799 626.86 653.799 622.956C653.799 619.052 653.767 615.148 653.703 611.244L647.079 610.572Z" fill="#6D0E55"/>
</svg>
